<svg xmlns="http://www.w3.org/2000/svg">
    <symbol width="24" height="24" viewBox="0 0 24 24" id="reddit">
        <path fill-rule="evenodd" clip-rule="evenodd" d="M21.75 11.75C21.75 17.1348 17.3848 21.5 12 21.5C6.61522 21.5 2.25 17.1348 2.25 11.75C2.25 6.36522 6.61522 2 12 2C17.3848 2 21.75 6.36522 21.75 11.75ZM17.075 10.5744C17.8618 10.5744 18.5004 11.213 18.5004 11.9998C18.5004 12.5814 18.1469 13.0831 17.6794 13.3112C17.7022 13.4481 17.7136 13.5849 17.7136 13.7331C17.7136 15.9226 15.1706 17.6902 12.0232 17.6902C8.87585 17.6902 6.33287 15.9226 6.33287 13.7331C6.33287 13.5849 6.34427 13.4367 6.36708 13.2998C5.86533 13.0717 5.52322 12.5814 5.52322 11.9998C5.52322 11.213 6.16182 10.5744 6.94866 10.5744C7.32497 10.5744 7.67848 10.734 7.92936 10.9735C8.91006 10.2551 10.2671 9.81034 11.7837 9.76473L12.5022 6.36648C12.525 6.29806 12.5592 6.24104 12.6162 6.20683C12.6732 6.17262 12.7416 6.16122 12.8101 6.17262L15.1706 6.67437C15.3302 6.33227 15.6723 6.1042 16.0715 6.1042C16.6302 6.1042 17.0864 6.56034 17.0864 7.11911C17.0864 7.67788 16.6302 8.13402 16.0715 8.13402C15.5241 8.13402 15.0794 7.70069 15.0566 7.16473L12.9469 6.71999L12.2969 9.76473C13.7794 9.82174 15.125 10.2779 16.0943 10.9735C16.3452 10.7226 16.6873 10.5744 17.075 10.5744ZM9.76533 11.9998C9.20655 11.9998 8.75041 12.456 8.75041 13.0147C8.75041 13.5735 9.20655 14.0296 9.76533 14.0296C10.3241 14.0296 10.7802 13.5735 10.7802 13.0147C10.7802 12.456 10.3241 11.9998 9.76533 11.9998ZM12.0118 16.4358C12.3995 16.4358 13.7223 16.3902 14.418 15.6946C14.5206 15.5919 14.5206 15.4323 14.4408 15.3182C14.3381 15.2156 14.1671 15.2156 14.0644 15.3182C13.6197 15.7516 12.696 15.9112 12.0232 15.9112C11.3504 15.9112 10.4153 15.7516 9.98199 15.3182C9.87936 15.2156 9.70831 15.2156 9.60568 15.3182C9.50304 15.4209 9.50304 15.5919 9.60568 15.6946C10.2899 16.3788 11.6241 16.4358 12.0118 16.4358ZM13.2206 13.0147C13.2206 13.5735 13.6767 14.0296 14.2355 14.0296C14.7943 14.0296 15.2504 13.5735 15.2504 13.0147C15.2504 12.456 14.7943 11.9998 14.2355 11.9998C13.6767 11.9998 13.2206 12.456 13.2206 13.0147Z"></path>
    </symbol>
    <symbol width="24" height="24" viewBox="0 0 24 24" id="telegram">
        <path fill-rule="evenodd" clip-rule="evenodd" d="M21.75 11.75C21.75 17.1348 17.3848 21.5 12 21.5C6.61522 21.5 2.25 17.1348 2.25 11.75C2.25 6.36522 6.61522 2 12 2C17.3848 2 21.75 6.36522 21.75 11.75ZM12.3482 9.44812C11.3999 9.84257 9.50459 10.659 6.66226 11.8973C6.20071 12.0809 5.95893 12.2604 5.93692 12.436C5.89973 12.7327 6.27131 12.8495 6.7773 13.0087C6.84613 13.0303 6.91744 13.0527 6.99055 13.0765C7.48837 13.2383 8.15802 13.4276 8.50615 13.4351C8.82193 13.442 9.17438 13.3118 9.5635 13.0446C12.2192 11.2519 13.59 10.3458 13.6761 10.3263C13.7368 10.3125 13.821 10.2952 13.878 10.3459C13.935 10.3965 13.9294 10.4925 13.9233 10.5182C13.8865 10.6752 12.4279 12.0312 11.6731 12.7329C11.4378 12.9517 11.2709 13.1069 11.2368 13.1423C11.1604 13.2217 11.0825 13.2968 11.0076 13.369C10.5451 13.8148 10.1983 14.1492 11.0268 14.6951C11.4249 14.9575 11.7435 15.1745 12.0614 15.3909C12.4085 15.6273 12.7547 15.8631 13.2027 16.1567C13.3168 16.2315 13.4258 16.3092 13.5319 16.3849C13.9359 16.6729 14.2988 16.9316 14.7472 16.8904C15.0077 16.8664 15.2769 16.6214 15.4135 15.8908C15.7365 14.164 16.3714 10.4227 16.5182 8.88103C16.531 8.74596 16.5148 8.57309 16.5019 8.49721C16.4889 8.42133 16.4617 8.31321 16.3631 8.23317C16.2463 8.13838 16.0659 8.11839 15.9853 8.11981C15.6186 8.12627 15.0559 8.32191 12.3482 9.44812Z" ></path>
    </symbol>
    <symbol width="24" height="24" viewBox="0 0 24 24" id="vk">
        <path d="M11.75 2C6.36516 2 2 6.36516 2 11.75C2 17.1348 6.36516 21.5 11.75 21.5C17.1348 21.5 21.5 17.1348 21.5 11.75C21.5 6.36516 17.1348 2 11.75 2ZM15.4997 13.0002C15.4997 13.0002 16.362 13.8513 16.5742 14.2464C16.5803 14.2545 16.5834 14.2627 16.5854 14.2667C16.6717 14.412 16.692 14.5247 16.6494 14.609C16.5783 14.7491 16.3345 14.8182 16.2513 14.8243H14.7278C14.6222 14.8243 14.4008 14.7969 14.1327 14.612C13.9265 14.4678 13.7234 14.2312 13.5253 14.0006C13.2298 13.6573 12.9738 13.3608 12.7159 13.3608C12.6831 13.3607 12.6505 13.3659 12.6194 13.376C12.4244 13.439 12.1745 13.7173 12.1745 14.4587C12.1745 14.6902 11.9917 14.8233 11.8627 14.8233H11.165C10.9273 14.8233 9.6893 14.74 8.59242 13.5832C7.24977 12.1664 6.04117 9.32469 6.03102 9.29828C5.95484 9.11445 6.11227 9.01594 6.28391 9.01594H7.82258C8.02773 9.01594 8.09477 9.14086 8.14148 9.25156C8.19633 9.38055 8.39742 9.89344 8.7275 10.4703C9.26273 11.4108 9.59078 11.7927 9.85383 11.7927C9.90315 11.7921 9.9516 11.7795 9.995 11.7561C10.3383 11.5652 10.2743 10.3413 10.2591 10.0874C10.2591 10.0397 10.258 9.54 10.0823 9.30031C9.95641 9.12664 9.74211 9.06063 9.61211 9.03625C9.66473 8.96364 9.73405 8.90477 9.81422 8.86461C10.0498 8.7468 10.4744 8.72953 10.8959 8.72953H11.1305C11.5875 8.73563 11.7053 8.76508 11.8709 8.80672C12.206 8.88695 12.2131 9.10328 12.1837 9.84367C12.1745 10.0539 12.1654 10.2916 12.1654 10.5719C12.1654 10.6328 12.1623 10.6978 12.1623 10.7669C12.1522 11.1437 12.14 11.5712 12.4061 11.747C12.4408 11.7687 12.4809 11.7803 12.5219 11.7805C12.6143 11.7805 12.8926 11.7805 13.6462 10.4876C13.8786 10.0714 14.0805 9.639 14.2505 9.19367C14.2657 9.16727 14.3104 9.08602 14.3632 9.05453C14.4022 9.03466 14.4454 9.02455 14.4891 9.02508H16.298C16.495 9.02508 16.6301 9.05453 16.6555 9.1307C16.7002 9.25156 16.6473 9.62023 15.8216 10.7384L15.453 11.2249C14.7045 12.206 14.7045 12.2558 15.4997 13.0002Z" ></path>
    </symbol>
</svg>